<?xml version="1.0" encoding="UTF-8" standalone="no"?>
<!-- Created with Inkscape (http://www.inkscape.org/) -->

<svg
   width="100"
   height="100"
   viewBox="0 0 210 297"
   version="1.1"
   id="svg1"
   xml:space="preserve"
   sodipodi:docname="fellowship of the flux logo.svg"
   inkscape:version="1.3.2 (091e20e, 2023-11-25)"
   xmlns:inkscape="http://www.inkscape.org/namespaces/inkscape"
   xmlns:sodipodi="http://sodipodi.sourceforge.net/DTD/sodipodi-0.dtd"
   xmlns="http://www.w3.org/2000/svg"
   xmlns:svg="http://www.w3.org/2000/svg"><sodipodi:namedview
     id="namedview1"
     pagecolor="#ffffff"
     bordercolor="#000000"
     borderopacity="0.25"
     inkscape:showpageshadow="2"
     inkscape:pageopacity="0.0"
     inkscape:pagecheckerboard="0"
     inkscape:deskcolor="#d1d1d1"
     inkscape:document-units="mm"
     inkscape:zoom="1.091357"
     inkscape:cx="430.65653"
     inkscape:cy="680.80383"
     inkscape:window-width="2056"
     inkscape:window-height="1257"
     inkscape:window-x="0"
     inkscape:window-y="44"
     inkscape:window-maximized="0"
     inkscape:current-layer="layer1" /><defs
     id="defs1" /><g
     inkscape:label="Layer 1"
     inkscape:groupmode="layer"
     id="layer1"><rect
       style="fill:#000000;stroke-width:1.158"
       id="rect26"
       width="153.34453"
       height="58.115566"
       x="23.591465"
       y="227.28363" /><path
       id="path1"
       style="fill:#000000;stroke-width:0.655518"
       d="m 98.360277,59.303423 c -3.164254,-0.01639 -6.286618,0.105819 -8.454264,0.371553 -11.542967,1.415049 -23.366319,5.790671 -33.047596,12.229745 -12.91079,8.587041 -22.316196,19.557804 -28.478881,33.219169 -3.2233,7.14536 -5.149145,14.39091 -6.062163,22.80739 -0.351292,3.23829 -0.296899,13.04683 0.09043,16.3034 1.134256,9.5364 4.176193,19.15361 8.66097,27.38127 7.770475,14.2555 20.34972,26.32476 34.902779,33.48788 7.89478,3.88587 16.893034,6.48666 24.888404,7.19336 1.192393,0.10539 2.48027,0.22137 2.86184,0.25787 1.572188,0.15051 9.88057,-0.0679 12.14086,-0.31936 15.01331,-1.66999 29.18563,-7.89546 41.10499,-18.05575 2.5837,-2.20238 7.8422,-7.53909 9.82214,-9.96787 7.92925,-9.72675 12.65433,-18.96643 15.56494,-30.43845 2.76008,-10.87869 2.99953,-22.19731 0.709,-33.50648 -2.8083,-13.86549 -9.57884,-26.532505 -19.85202,-37.140895 -12.26368,-12.663816 -29.27052,-21.274217 -46.14499,-23.362395 -2.33588,-0.289065 -5.54219,-0.444045 -8.706443,-0.460437 z m -1.53479,7.18199 c 1.017546,-0.01855 2.035628,-0.01211 3.05356,0.02015 9.870443,0.31287 18.527533,2.547408 28.010183,7.229533 11.30225,5.580585 20.79648,13.676905 27.3513,23.324155 6.82598,10.046375 10.60608,20.083385 11.79049,31.305595 0.35557,3.36906 0.30513,12.50524 -0.0853,15.43626 -0.71179,5.34406 -2.18765,11.38148 -3.87625,15.85485 -0.96297,2.55107 -3.12559,7.08218 -4.48758,9.40304 -7.19687,12.26358 -18.6255,23.02481 -31.08441,29.26798 -7.58554,3.80113 -15.47959,6.04266 -23.8895,6.78357 -17.152794,1.51117 -34.702647,-4.30937 -48.748964,-16.16749 -16.406915,-13.85099 -25.050453,-31.08797 -25.680603,-51.21238 -0.159717,-5.10067 0.360991,-11.14594 1.399915,-16.24707 1.917356,-9.41426 7.213418,-20.42986 13.743864,-28.586885 2.108263,-2.63339 6.257882,-6.83732 9.161714,-9.28161 C 66.412609,72.732458 81.562293,66.763644 96.825487,66.485413 Z" /><path
       style="fill:#000000;stroke-width:0.655518"
       d="m 101.74029,85.594525 c -0.0475,-0.0474 -0.0102,-0.4141 0.0828,-0.81481 0.22896,-0.98702 0.052,-2.73367 -0.3747,-3.69829 -0.21879,-0.494622 -1.03552,-1.495762 -2.172408,-2.662902 -2.152624,-2.20991 -2.688066,-3.16489 -2.690662,-4.79883 -0.002,-1.19676 0.4513,-2.79025 1.201397,-4.22417 l 0.499006,-0.95391 0.125519,0.52031 c 1.280254,5.30685 1.690198,6.25046 3.647258,8.39531 0.73156,0.80176 1.51527,1.8554 1.74158,2.34143 0.73412,1.576592 0.48177,3.291632 -0.71523,4.860982 -0.47645,0.62466 -1.19877,1.18063 -1.34453,1.03488 z"
       id="path91" /><path
       style="fill:#ffff00;stroke-width:0.655518"
       d="m 117.95132,87.476565 c 0.045,-0.86193 0.0988,-0.99727 0.39656,-0.99727 0.20482,0 0.43724,0.19342 0.57314,0.47696 0.28305,0.59055 1.05801,0.67329 1.20056,0.12818 0.12128,-0.4638 0.86443,-0.63642 1.4134,-0.32829 0.23857,0.13391 0.43425,0.32124 0.43486,0.41629 5.9e-4,0.095 -0.33185,0.42675 -0.73875,0.73711 -0.68231,0.52042 -0.84063,0.5643 -2.03581,0.5643 h -1.29597 z"
       id="path90" /><path
       style="fill:#000000;stroke-width:0.655518"
       d="m 75.353398,87.796595 -0.66132,-0.67726 0.445635,-0.29199 c 0.580796,-0.38055 1.500363,-0.21338 1.500363,0.27277 0,0.51645 0.82303,0.44635 1.067847,-0.091 0.203971,-0.44767 0.591631,-0.68335 0.855635,-0.52019 0.08678,0.0536 0.15779,0.52218 0.15779,1.0412 v 0.94368 h -1.352315 c -1.343676,0 -1.356537,-0.004 -2.013635,-0.67725 z"
       id="path89" /><path
       style="fill:#000000;stroke-width:0.655518"
       d="m 112.67008,88.966015 c -0.26232,-0.0958 -0.47695,-0.23085 -0.47695,-0.30008 0,-0.0692 0.81335,-0.88223 1.80746,-1.80666 1.58681,-1.47559 1.88323,-1.68078 2.42815,-1.68078 0.36646,0 0.62068,0.0851 0.62068,0.20773 0,0.25268 -3.50646,3.78697 -3.73801,3.76768 -0.0904,-0.008 -0.379,-0.0921 -0.64133,-0.18789 z"
       id="path88" /><path
       style="fill:#ffff00;stroke-width:0.655518"
       d="m 81.422299,87.414905 c -1.009669,-0.96399 -1.835753,-1.86154 -1.835753,-1.99456 0,-0.16224 0.206383,-0.24185 0.626984,-0.24185 0.546381,0 0.819509,0.18154 2.124627,1.41211 0.823705,0.77665 1.563201,1.52371 1.643326,1.66014 0.141801,0.24145 -0.293935,0.91686 -0.591514,0.91686 -0.07255,0 -0.958008,-0.78872 -1.96767,-1.7527 z"
       id="path87" /><path
       style="fill:#000000;stroke-width:0.655518"
       d="m 116.48575,91.202145 c -0.93007,-0.89282 -1.69104,-1.71583 -1.69104,-1.82892 0,-0.1309 0.31261,-0.20562 0.86021,-0.20562 0.79204,0 0.9123,0.0581 1.51759,0.73337 1.33293,1.48699 1.7576,1.86822 2.08113,1.86822 0.34951,0 1.06475,-0.4405 0.91742,-0.56502 -0.0475,-0.0402 -0.5498,-0.41729 -1.11612,-0.83801 l -1.02968,-0.76497 0.67516,-0.056 c 1.00957,-0.0837 1.74704,0.10554 2.333,0.5986 0.59232,0.49841 0.65681,0.91672 0.23951,1.5536 -0.38784,0.59191 -1.06519,0.91339 -2.17066,1.03021 l -0.92549,0.0978 z"
       id="path86" /><path
       style="fill:#000000;stroke-width:0.655518"
       d="m 76.377914,92.483635 c -0.714475,-0.32809 -1.170729,-0.75585 -1.351456,-1.26705 -0.274905,-0.77758 1.618075,-1.89966 2.687396,-1.59298 l 0.550898,0.158 -0.900053,0.64662 c -0.989794,0.7111 -1.072992,0.88933 -0.54663,1.17103 0.564486,0.30211 0.975346,0.0507 2.01018,-1.23011 l 0.970803,-1.20154 h 0.92415 c 0.508276,0 0.971209,0.0761 1.028731,0.16923 0.05749,0.0931 -0.659812,0.90978 -1.594076,1.81491 -1.567306,1.51841 -1.752319,1.64586 -2.392426,1.64807 -0.381565,0.001 -1.005946,-0.14097 -1.387517,-0.31618 z"
       id="path85" /><path
       style="fill:#ffff00;stroke-width:0.655518"
       d="m 100.18059,92.757485 c 0.0661,-1.05869 0.0117,-1.71294 -0.20523,-2.47151 -0.279119,-0.97592 -0.434248,-1.16753 -2.871223,-3.54652 -3.276361,-3.19842 -3.382942,-3.39254 -3.380333,-6.157102 0.0013,-1.58133 0.08008,-2.30702 0.327176,-3.02108 l 0.325216,-0.93982 1.580651,3.11638 c 1.862028,3.671112 1.953499,3.806662 4.060253,6.016922 1.8894,1.98221 2.4611,3.01808 2.45793,4.45348 -0.003,1.19976 -0.47656,2.27945 -1.42736,3.25199 -0.39635,0.40541 -0.7738,0.73711 -0.83877,0.73711 -0.065,0 -0.0777,-0.64793 -0.0283,-1.43985 z"
       id="path84" /><path
       style="fill:#000000;stroke-width:0.655518"
       d="m 95.109354,94.760765 c 0,-1.71654 -0.377146,-2.71173 -1.51588,-4.00003 -1.611245,-1.82286 -1.866097,-3.11465 -0.975962,-4.94682 0.451029,-0.92835 0.730411,-1.01162 1.086128,-0.32373 0.137981,0.26682 0.668065,1.10583 1.177967,1.86447 2.036212,3.02952 2.444482,4.1887 2.067913,5.87138 -0.196315,0.87724 -1.268947,2.69366 -1.666723,2.82247 -0.105538,0.0342 -0.173443,-0.46998 -0.173443,-1.28774 z"
       id="path83" /><path
       style="fill:#000000;stroke-width:0.655518"
       d="m 114.31154,103.2159 c -0.0551,-1.54049 -0.0563,-1.53915 1.09021,-1.14122 l 0.69376,0.24077 0.0513,1.14413 0.0513,1.14413 -0.91848,-2.9e-4 -0.91848,-2.9e-4 z"
       id="path82" /><path
       style="fill:#ffff00;stroke-width:0.655518"
       d="m 110.8385,103.95331 c 0.0433,-0.52244 0.13061,-0.6613 0.44407,-0.70583 0.37908,-0.0538 0.39024,-0.11294 0.39024,-2.06761 0,-1.634665 0.0542,-2.072125 0.28906,-2.331615 0.31169,-0.34441 0.35873,-0.8921 0.16486,-1.91925 -0.10761,-0.57009 -0.0812,-0.6504 0.21342,-0.6504 0.1849,0 0.38355,0.12346 0.44145,0.27435 0.0579,0.15089 0.10528,1.88864 0.10528,3.861675 v 3.58734 l -0.84711,0.30087 c -1.19132,0.42311 -1.26348,0.40212 -1.20127,-0.34953 z"
       id="path81" /><path
       style="fill:#000000;stroke-width:0.655518"
       d="m 80.800619,103.47634 c 0,-0.83696 0.06096,-1.12735 0.236766,-1.12735 0.130226,0 0.435481,-0.15631 0.67835,-0.34735 0.748065,-0.58842 0.947074,-0.33115 0.947074,1.22435 v 1.37772 H 81.73171 80.800619 Z"
       id="path80" /><path
       style="fill:#000000;stroke-width:0.655518"
       d="m 85.310041,104.59485 c 0,-0.10026 -0.273167,-0.29643 -0.607042,-0.43592 l -0.607037,-0.25364 v -3.47786 c 0,-3.600915 0.09243,-4.148825 0.699858,-4.148825 0.408689,0 0.42374,0.14816 0.08169,0.80402 -0.351417,0.6738 -0.327189,1.14662 0.08565,1.67146 0.299657,0.38096 0.34688,0.70361 0.34688,2.370265 0,1.55492 0.05048,1.94865 0.260156,2.02912 0.176623,0.0678 0.260162,0.34449 0.260162,0.86175 0,0.56164 -0.06839,0.76192 -0.260162,0.76192 -0.143087,0 -0.260156,-0.082 -0.260155,-0.18229 z"
       id="path79" /><path
       style="fill:#000000;stroke-width:0.655518"
       d="m 139.11956,87.398925 c 0.16694,-0.19306 0.30352,-0.48795 0.30352,-0.6553 0,-0.51481 -0.67681,-1.21825 -1.17212,-1.21825 -0.53762,0 -1.25603,0.61903 -1.25603,1.08227 0,1.18053 1.35251,1.68424 2.12463,0.79128 z"
       id="path78" /><path
       style="fill:#000000;stroke-width:0.655518"
       d="m 144.80145,106.5549 c 0.003,-4.09805 -0.10685,-4.37838 -2.94959,-7.562715 -1.19275,-1.33606 -2.26618,-2.46066 -2.38542,-2.49912 -0.12045,-0.0389 -0.21583,0.0714 -0.21461,0.24805 0.004,0.52242 -0.91798,3.375615 -1.04288,3.22871 -0.0635,-0.0746 -0.28451,-0.59143 -0.49125,-1.14842 -0.34307,-0.9243 -0.37589,-1.34264 -0.37589,-4.79204 v -3.77934 l -0.7846,-0.64292 c -1.54773,-1.26826 -1.93485,-3.10756 -0.97318,-4.62395 0.66227,-1.04429 1.47607,-1.42768 2.82358,-1.33021 0.86976,0.0629 1.10714,0.15884 1.61774,0.65374 0.80653,0.78172 1.13212,1.5288 1.13212,2.59767 0,1.04406 -0.25718,1.60517 -1.11255,2.42735 l -0.62184,0.5977 v 1.84885 1.84886 l 4.18056,4.22346 4.18055,4.223455 -0.0905,0.67485 c -0.0498,0.37116 -0.25301,0.84781 -0.45161,1.05921 -0.33311,0.35458 -0.3611,0.58851 -0.3611,3.01814 V 109.46 h -1.04064 -1.04063 z"
       id="path77" /><path
       style="fill:#000000;stroke-width:0.655518"
       d="m 59.510953,87.479535 c 0.71561,-0.6449 0.105551,-1.95416 -0.910561,-1.95416 -1.145204,0 -1.638056,1.37571 -0.744623,2.07849 0.514791,0.40493 1.118177,0.35961 1.655184,-0.12433 z"
       id="path76" /><path
       style="fill:#000000;stroke-width:0.655518"
       d="m 49.754996,106.85786 c 0,-2.50829 -0.01842,-2.64652 -0.433599,-3.25754 -0.862085,-1.26867 -0.877247,-1.24529 3.733958,-5.758015 l 4.167557,-4.07857 -0.0052,-2.01796 c -0.0046,-1.93297 -0.02242,-2.02939 -0.418994,-2.28921 -1.643562,-1.0769 -1.597721,-4.06863 0.08126,-5.30383 0.595184,-0.43786 1.874907,-0.66456 2.651369,-0.46968 0.65367,0.16406 1.509639,0.96663 1.864759,1.74843 0.696574,1.53351 0.245853,3.08683 -1.222568,4.21329 l -0.847552,0.65018 -0.05998,4.07582 c -0.05644,3.83345 -0.08397,4.12739 -0.463209,4.94302 L 58.399581,100.181 58.158704,99.610915 c -0.13248,-0.31354 -0.376385,-1.15256 -0.542015,-1.86448 -0.165624,-0.71191 -0.349208,-1.29439 -0.407962,-1.29439 -0.140904,0 -3.984366,4.244535 -4.376215,4.832885 -0.167413,0.25136 -0.479604,0.88628 -0.693762,1.41094 -0.349266,0.85566 -0.389377,1.24869 -0.389377,3.81566 v 2.86175 l -0.997273,0.0521 -0.997273,0.052 z"
       id="path75" /><path
       style="fill:#000000;stroke-width:0.655518"
       d="m 113.44276,111.94067 c -0.52778,-0.25676 -1.01708,-0.63955 -1.1505,-0.90004 -0.24867,-0.48552 -1.03467,-3.4797 -0.93774,-3.57221 0.032,-0.0305 0.58515,-0.11132 1.22929,-0.17955 l 1.17115,-0.12409 1.47379,1.43854 c 1.12041,1.09361 1.47087,1.54551 1.46161,1.88472 -0.0133,0.4859 -0.30255,1.29297 -0.32251,0.89979 -0.007,-0.13209 -0.72332,-0.96531 -1.59247,-1.85161 -1.55065,-1.58121 -1.89878,-1.76724 -2.27608,-1.21622 -0.23802,0.3476 -0.13384,0.64527 0.41885,1.1967 0.67272,0.67118 2.39688,2.69064 2.39688,2.80739 0,0.22971 -1.05686,0.0133 -1.87227,-0.38342 z"
       id="path74" /><path
       style="fill:#000000;stroke-width:0.655518"
       d="m 82.014691,112.26625 c 0,-0.0782 0.262214,-0.44895 0.582697,-0.82384 0.981292,-1.14787 2.018892,-2.71633 2.018892,-3.0518 0,-0.21875 -0.12797,-0.31812 -0.409692,-0.31812 -0.287406,0 -0.830988,0.43882 -1.821116,1.47016 l -1.411416,1.47016 v -0.62672 c 0,-0.5274 0.181119,-0.82908 1.142949,-1.90375 l 1.142948,-1.27705 h 1.082858 c 0.595571,0 1.119973,0.0371 1.165341,0.0825 0.10723,0.10723 -0.587843,3.57863 -0.774259,3.86687 -0.403498,0.62389 -2.719202,1.57054 -2.719202,1.1116 z"
       id="path73" /><path
       style="fill:#ffff00;stroke-width:0.655518"
       d="m 41.429912,117.59707 v -5.22215 -1.37834 -1.37834 l -1.257435,0.0509 -1.257435,0.0509 -0.08672,1.3008 -0.08673,1.30079 h -0.520318 -0.520318 l -0.05218,-1.21045 c -0.06749,-1.56535 0.04451,-1.96503 0.620651,-2.21412 0.259697,-0.11228 0.697275,-0.38656 0.972396,-0.60952 l 0.50022,-0.40536 0.378155,0.35525 c 0.207983,0.1954 0.587751,0.35526 0.843928,0.35526 h 0.465785 v -2.14675 c 0,-2.29935 0.134054,-2.68208 0.858873,-2.45204 0.332879,0.10566 0.3552,0.24822 0.3552,2.26905 v 2.1563 h 0.683522 c 0.375933,0 0.730903,-0.0767 0.788818,-0.17038 0.101271,-0.16386 1.418535,0.5759 1.690267,0.94923 0.07009,0.0963 0.12862,0.81896 0.130081,1.60594 l 0.0026,1.43087 h -0.599469 -0.599439 l -0.05093,-1.25743 -0.05093,-1.25744 -0.997273,-0.0521 -0.99728,-0.0521 v 4.77824 4.77823 h -0.607035 -0.607037 z"
       id="path69"
       sodipodi:nodetypes="ccccccccccssscsscssscsssccccccccccccc" /><path
       style="fill:#ffff00;stroke-width:0.655518"
       d="m 154.70234,117.59707 v -5.22215 -1.37834 -1.37834 l -1.25744,0.0509 -1.25743,0.0509 -0.0867,1.3008 -0.0867,1.30079 h -0.52032 -0.52032 l -0.0522,-1.21045 c -0.0675,-1.56535 0.0445,-1.96503 0.62065,-2.21412 0.2597,-0.11228 0.69728,-0.38656 0.9724,-0.60952 l 0.50022,-0.40536 0.37815,0.35525 c 0.20799,0.1954 0.58775,0.35526 0.84393,0.35526 h 0.46579 v -2.14675 c 0,-2.29935 0.13405,-2.68208 0.85887,-2.45204 0.33288,0.10566 0.3552,0.24822 0.3552,2.26905 v 2.1563 h 0.68352 c 0.37593,0 0.7309,-0.0767 0.78882,-0.17038 0.10127,-0.16386 1.41853,0.5759 1.69027,0.94923 0.0701,0.0963 0.12862,0.81896 0.13008,1.60594 l 0.003,1.43087 h -0.59947 -0.59944 l -0.0509,-1.25743 -0.0509,-1.25744 -0.99727,-0.0521 -0.99728,-0.0521 v 4.77824 4.77823 h -0.60704 -0.60704 z"
       id="path69-8"
       sodipodi:nodetypes="ccccccccccssscsscssscsssccccccccccccc" /><path
       style="fill:#000000;stroke-width:0.655518"
       d="m 114.07091,118.33745 c 0.0691,-0.48544 -0.2526,-0.913 -0.58967,-0.78366 -0.25326,0.0972 -0.34488,0.94328 -0.12586,1.1623 0.2372,0.2372 0.65967,0.0136 0.71553,-0.37864 z"
       id="path68" /><path
       style="fill:#000000;stroke-width:0.655518"
       d="m 112.48404,119.25852 c -0.1206,-1.83598 -0.008,-2.31874 0.64108,-2.74392 0.60361,-0.3955 0.91642,-0.36565 1.41732,0.13525 0.56553,0.56552 0.60833,2.12603 0.0787,2.86981 -0.28356,0.39822 -1.67796,1.38733 -1.95579,1.38733 -0.0402,0 -0.12177,-0.74181 -0.18132,-1.64847 z"
       id="path67" /><path
       style="fill:#000000;stroke-width:0.655518"
       d="m 83.749088,118.40947 c 0,-0.11018 -0.124103,-0.37751 -0.27579,-0.59406 -0.218772,-0.31235 -0.32633,-0.35179 -0.520317,-0.1908 -0.324987,0.26972 -0.309812,0.76417 0.03402,1.10799 0.215056,0.21505 0.333646,0.2328 0.520318,0.0779 0.132985,-0.11037 0.241788,-0.29081 0.241788,-0.401 z"
       id="path66" /><path
       style="fill:#ffff00;stroke-width:0.655518"
       d="m 83.463413,120.56517 c -0.49099,-0.28161 -1.050363,-0.71243 -1.243053,-0.9574 -1.053044,-1.33872 -0.265767,-3.65398 1.123893,-3.3052 0.715453,0.17957 1.078531,1.27599 1.050908,3.17354 -0.01285,0.88238 -0.02688,1.60359 -0.0312,1.60269 -0.0046,-6.5e-4 -0.409562,-0.23203 -0.900551,-0.51363 z"
       id="path65" /><path
       style="fill:#000000;stroke-width:0.655518"
       d="m 148.09226,118.18283 c 0.62761,-0.79788 0.14336,-1.84307 -0.85392,-1.84307 -0.69618,0 -1.22456,0.49838 -1.22456,1.15503 0,1.15428 1.3581,1.60386 2.07848,0.68804 z"
       id="path64" /><path
       style="fill:#ffff00;stroke-width:0.655518"
       d="m 145.52266,120.97578 c -2.55543,-1.27343 -2.97179,-4.65865 -0.79378,-6.45394 1.49888,-1.23551 3.58014,-1.16168 5.03415,0.17858 1.68781,1.55577 1.60944,4.40937 -0.15813,5.75756 -1.39446,1.06361 -2.66384,1.22462 -4.08224,0.5178 z"
       id="path63" /><path
       style="fill:#000000;stroke-width:0.655518"
       d="m 50.448751,118.3054 c 1.037548,-1.03755 -0.67249,-2.60868 -1.764098,-1.62079 -0.727219,0.65813 -0.130304,1.96767 0.8969,1.96767 0.289064,0 0.674489,-0.15417 0.867198,-0.34688 z"
       id="path62" /><path
       style="fill:#000000;stroke-width:0.655518"
       d="m 48.282676,121.14966 c -0.380509,-0.13927 -0.984733,-0.53921 -1.342712,-0.88877 -0.881371,-0.86063 -1.236294,-1.84511 -1.140857,-3.16448 0.100786,-1.39342 0.745573,-2.34211 2.036866,-2.99691 1.504624,-0.76297 2.984097,-0.57621 4.213115,0.53186 1.74952,1.57734 1.799051,4.10244 0.111871,5.70316 -1.110147,1.05326 -2.455212,1.33597 -3.878283,0.81514 z"
       id="path61" /><path
       style="fill:#ffff00;stroke-width:0.655518"
       d="m 110.24499,126.1238 c -0.2126,-0.30352 -0.0936,-0.47965 1.33432,-1.97504 2.01845,-2.11382 3.2154,-2.73552 3.2154,-1.6701 0,0.44692 -3.56518,3.97838 -4.01636,3.97838 -0.16497,0 -0.40498,-0.14995 -0.53336,-0.33324 z"
       id="path60" /><path
       style="fill:#000000;stroke-width:0.655518"
       d="m 83.854528,124.77384 c -1.799509,-1.64779 -2.256786,-2.3052 -1.871472,-2.69051 0.346966,-0.34697 1.144594,0.1902 2.902347,1.95456 1.460358,1.46587 1.692935,1.77418 1.531599,2.03037 -0.104627,0.16614 -0.306632,0.32503 -0.448899,0.35308 -0.142267,0.0281 -1.093378,-0.71331 -2.113575,-1.6475 z"
       id="path59" /><path
       style="fill:#000000;stroke-width:0.655518"
       d="m 151.87369,135.98386 c -0.93356,-0.9607 -1.69737,-1.88862 -1.69737,-2.06205 0,-0.17343 0.13812,-0.4859 0.30694,-0.69438 l 0.30694,-0.37905 1.04101,1.09695 c 0.57257,0.60333 1.32109,1.44 1.6634,1.85928 0.36632,0.44869 0.70369,0.71206 0.82003,0.64016 0.12093,-0.0747 0.19766,-0.65417 0.19766,-1.49274 v -1.37058 l -2.10522,-2.17793 c -2.05696,-2.12801 -2.09809,-2.18581 -1.79423,-2.52157 0.17104,-0.189 0.43756,-0.34363 0.59227,-0.34363 0.27601,0 1.57878,1.26608 3.53486,3.43531 l 0.98639,1.09388 v 1.77808 c 0,1.86254 -0.0693,2.07136 -0.86243,2.59947 -0.84619,0.56344 -1.18253,0.39909 -2.99025,-1.4612 z"
       id="path58" /><path
       style="fill:#000000;stroke-width:0.655518"
       d="m 41.759074,137.33385 -0.589324,-0.39676 -0.04903,-2.05227 -0.04903,-2.05226 1.956873,-1.98792 c 1.076283,-1.09336 2.087807,-2.05928 2.247832,-2.1465 0.44079,-0.24024 0.836402,-0.004 0.836402,0.49999 0,0.33898 -0.468368,0.92398 -1.907834,2.38296 l -1.907827,1.9337 v 1.41415 c 0,1.23439 0.03861,1.41307 0.303518,1.40572 0.166934,-0.005 0.647665,-0.42958 1.068299,-0.94432 0.951583,-1.16451 2.408039,-2.60966 2.518625,-2.49907 0.04549,0.0455 0.129819,0.39203 0.187315,0.77001 0.103336,0.6793 0.0853,0.70682 -1.558665,2.37828 -1.82244,1.85292 -2.071019,1.95816 -3.057122,1.29429 z"
       id="path57" /><path
       style="fill:#000000;stroke-width:0.655518"
       d="m 150.69664,140.33219 v -0.52032 h 3.03518 3.03519 v 0.52032 0.52031 h -3.03519 -3.03518 z"
       id="path56" /><path
       style="fill:#ffff00;stroke-width:0.655518"
       d="m 40.042396,140.33219 v -0.52032 h 2.93823 c 1.789107,0 2.980531,0.0684 3.046384,0.17499 0.05946,0.0962 0.05887,0.33039 -0.0013,0.52032 -0.103755,0.3269 -0.26633,0.34532 -3.046384,0.34532 h -2.936792 z"
       id="path55" /><path
       style="fill:#000000;stroke-width:0.655518"
       d="m 134.20709,140.52958 c 0.22601,-0.42231 -0.16233,-0.99416 -0.56914,-0.83806 -0.33345,0.12797 -0.37602,0.65395 -0.0771,0.95286 0.28874,0.28873 0.44516,0.26095 0.64625,-0.1148 z"
       id="path54" /><path
       style="fill:#000000;stroke-width:0.655518"
       d="m 132.59989,141.46906 c -0.1643,-0.42815 -0.62907,-0.52362 -0.95166,-0.19548 -0.27147,0.27613 -0.26318,0.3171 0.1293,0.63878 0.36882,0.30229 0.45009,0.31301 0.67412,0.089 0.14011,-0.14011 0.20681,-0.37964 0.14824,-0.53228 z"
       id="path53" /><path
       style="fill:#ffff00;stroke-width:0.655518"
       d="m 131.22534,143.10818 c -0.88617,-0.69707 -0.6004,-1.50385 1.21368,-3.42639 0.87721,-0.92966 1.10953,-1.08399 1.63179,-1.08399 0.78539,0 1.36317,0.58423 1.36317,1.37839 0,0.48495 -0.21161,0.79029 -1.34415,1.93951 -1.53833,1.56099 -2.09918,1.79447 -2.86449,1.19248 z"
       id="path52" /><path
       style="fill:#000000;stroke-width:0.655518"
       d="m 63.367027,140.50888 c 0.254492,-0.28121 0.271273,-0.39147 0.09237,-0.60704 -0.441918,-0.53248 -1.099095,-0.0805 -0.913707,0.62842 0.10932,0.41806 0.431239,0.40968 0.821338,-0.0214 z"
       id="path51" /><path
       style="fill:#000000;stroke-width:0.655518"
       d="m 65.15989,141.58885 c 0.07059,-0.49713 -0.418038,-0.70832 -0.786446,-0.33991 -0.368408,0.3684 -0.157219,0.85703 0.339906,0.78644 0.251831,-0.0358 0.410781,-0.19471 0.44654,-0.44653 z"
       id="path50" /><path
       style="fill:#000000;stroke-width:0.655518"
       d="m 64.237169,143.28875 c -0.55725,-0.23029 -2.829336,-2.68033 -2.956867,-3.18845 -0.141507,-0.56381 0.272938,-1.27337 0.878178,-1.50349 0.680796,-0.25883 1.379001,0.11714 2.420469,1.30339 1.586401,1.80694 1.766413,2.35231 1.022085,3.09664 -0.473311,0.47331 -0.770831,0.53699 -1.363865,0.29191 z"
       id="path49" /><path
       style="fill:#000000;stroke-width:0.655518"
       d="m 39.868959,147.0096 v -1.64767 h 3.121907 3.121906 v 1.64767 1.64767 h -3.121906 -3.121907 z"
       id="path48" /><path
       style="fill:#ffff00;stroke-width:0.655518"
       d="m 150.5291,149.01006 c -0.20576,-0.20577 -0.3498,-0.48435 -0.32009,-0.61907 0.0556,-0.25208 3.40854,-3.72282 3.59647,-3.72282 0.0577,0 0.86476,0.81365 1.7934,1.80811 1.7337,1.85657 1.98116,2.35901 1.33276,2.70602 -0.31382,0.16795 -0.5184,0.032 -1.73814,-1.15498 l -1.38246,-1.34534 -0.90681,0.86073 c -0.49874,0.4734 -1.153,1.0814 -1.45391,1.3511 l -0.5471,0.49036 z"
       id="path47" /><path
       style="fill:#000000;stroke-width:0.655518"
       d="m 140.12658,149.1958 c -0.13059,-0.24402 -0.10983,-0.38349 0.0806,-0.54156 0.39347,-0.32654 0.32918,-1.54494 -0.10595,-2.00812 l -0.36248,-0.38583 0.91587,-0.88278 c 0.50373,-0.48553 0.97903,-0.88278 1.05623,-0.88278 0.0772,0 0.14036,0.89156 0.14036,1.98124 0,1.87843 -0.0233,2.00894 -0.44901,2.51487 -0.51015,0.60627 -1.01726,0.68775 -1.27564,0.20496 z"
       id="path46" /><path
       style="fill:#ffff00;stroke-width:0.655518"
       d="m 55.506758,149.12 -0.560101,-0.57787 0.0491,-2.04297 0.0491,-2.04296 1.015529,0.96082 1.01553,0.96083 -0.365131,0.39192 c -0.42867,0.46013 -0.489331,1.47839 -0.118209,1.9844 0.215265,0.29351 0.211817,0.37558 -0.02688,0.64019 -0.366041,0.40576 -0.411075,0.3941 -1.05897,-0.27436 z"
       id="path45" /><path
       style="fill:#ffff00;stroke-width:0.655518"
       d="m 138.08009,151.73579 c -0.31556,-0.39918 -0.34813,-0.73483 -0.0991,-1.02144 0.21722,-0.25001 0.19355,-0.34204 -0.19608,-0.76245 -0.2437,-0.26296 -0.4431,-0.56642 -0.4431,-0.67436 0,-0.31899 0.52055,-0.96718 0.77673,-0.96718 0.24802,0 1.65142,2.01467 1.65142,2.37072 0,0.20123 -1.18331,1.2715 -1.4058,1.2715 -0.0619,0 -0.1898,-0.0976 -0.28407,-0.21679 z"
       id="path44" /><path
       style="fill:#000000;stroke-width:0.655518"
       d="m 57.685996,151.41964 c -0.746904,-0.61566 -0.787435,-0.85553 -0.271771,-1.60827 0.761837,-1.1121 1.214157,-1.49824 1.546617,-1.32031 0.511953,0.27399 0.564775,0.7955 0.138911,1.37151 -0.337802,0.4569 -0.358956,0.57686 -0.165473,0.93839 0.169098,0.31595 0.174945,0.50214 0.02458,0.78307 -0.265741,0.49654 -0.509207,0.46509 -1.272879,-0.16439 z"
       id="path43" /><path
       style="fill:#000000;stroke-width:0.655518"
       d="m 60.088602,154.01645 c -0.53234,-0.48652 -0.967892,-0.94766 -0.967892,-1.02473 0,-0.0771 0.360581,-0.58279 0.801292,-1.12381 l 0.801286,-0.98366 0.597951,0.57753 0.597951,0.57752 -0.532045,0.44623 c -0.292624,0.24543 -0.532039,0.50829 -0.532039,0.58414 0,0.0759 0.231713,0.40182 0.514917,0.72438 0.542159,0.61748 0.54252,1.107 6.55e-4,1.107 -0.172893,0 -0.7499,-0.39807 -1.28224,-0.8846 z"
       id="path42" /><path
       style="fill:#000000;stroke-width:0.655518"
       d="m 154.28519,153.57668 c 0.1556,-0.40549 -0.17683,-0.84362 -0.64009,-0.84362 -0.46326,0 -0.79568,0.43813 -0.64008,0.84362 0.068,0.17723 0.30828,0.28374 0.64008,0.28374 0.3318,0 0.57208,-0.10651 0.64009,-0.28374 z"
       id="path41" /><path
       style="fill:#000000;stroke-width:0.655518"
       d="m 152.7389,154.80414 c -0.9901,-0.53731 -1.14846,-1.86421 -0.32121,-2.69146 0.84173,-0.84173 2.17091,-0.6661 2.69985,0.35675 0.4176,0.80755 0.32778,1.35984 -0.32774,2.01537 -0.65413,0.65413 -1.2601,0.74848 -2.0509,0.31934 z"
       id="path40" /><path
       style="fill:#000000;stroke-width:0.655518"
       d="m 134.91366,154.72764 c -0.21037,-0.39308 -0.0606,-0.77504 0.50426,-1.28625 0.48108,-0.43537 0.45821,-0.75905 -0.0707,-1.00001 -0.57111,-0.26022 -0.54791,-0.66122 0.0726,-1.25574 0.5961,-0.5711 0.79883,-0.49198 1.24242,0.48485 0.55449,1.22109 0.4527,1.79374 -0.47194,2.65479 -0.44249,0.41208 -0.86901,0.74924 -0.9478,0.74924 -0.0788,0 -0.2268,-0.15609 -0.3289,-0.34688 z"
       id="path39" /><path
       style="fill:#000000;stroke-width:0.655518"
       d="m 42.449991,155.33415 c -0.48844,-0.26544 -1.020079,-1.20825 -1.020079,-1.80901 0,-1.29554 1.135371,-2.33752 2.405884,-2.20799 1.904144,0.19412 2.618521,2.74439 1.102753,3.93669 -0.519407,0.40857 -1.807999,0.45015 -2.488558,0.0803 z"
       id="path38" /><path
       style="fill:#000000;stroke-width:0.655518"
       d="m 160.92279,126.2509 c 0.73935,-0.7936 0.24307,-1.87513 -0.86044,-1.87513 -0.74438,0 -1.21407,0.45107 -1.21407,1.16595 0,0.97139 1.38813,1.44593 2.07451,0.70918 z"
       id="path37" /><path
       style="fill:#000000;stroke-width:0.655518"
       d="m 149.18226,169.12372 c -0.94135,-0.14084 -1.04396,-0.25851 -0.6381,-0.73171 0.44655,-0.52062 5.69009,-6.24206 8.43536,-9.20414 l 2.21564,-2.39062 V 143.0228 129.24835 l -0.60016,-0.28479 c -0.87676,-0.41605 -1.9462,-1.6573 -2.18182,-2.53234 -0.44535,-1.65387 0.25718,-3.41253 1.70259,-4.26218 0.68956,-0.40535 1.01578,-0.48157 2.06105,-0.48157 1.09781,0 1.3291,0.0604 1.99455,0.52139 1.38708,0.96079 2.00274,2.78607 1.50268,4.45512 -0.24908,0.83135 -1.33027,2.09622 -2.0448,2.39219 l -0.52627,0.21799 v 14.10819 14.1082 l -3.25198,3.51574 c -4.28567,4.63325 -7.4974,8.00647 -7.73953,8.12866 -0.10742,0.0542 -0.52556,0.0492 -0.92921,-0.0112 z"
       id="path36" /><path
       style="fill:#000000;stroke-width:0.655518"
       d="m 37.611465,126.16103 c 0.431941,-0.54912 0.355907,-1.1871 -0.197265,-1.65518 -0.4712,-0.39871 -0.865946,-0.3832 -1.424238,0.056 -0.53645,0.42197 -0.617473,1.25699 -0.169944,1.7515 0.444055,0.49068 1.345996,0.41402 1.791447,-0.15228 z"
       id="path35" /><path
       style="fill:#000000;stroke-width:0.655518"
       d="m 44.881027,167.60551 c -2.679065,-2.75647 -8.293914,-8.80966 -8.835963,-9.52577 l -0.502441,-0.66379 -0.01429,-14.04858 -0.01429,-14.04857 -0.812784,-0.53461 c -1.947853,-1.28121 -2.377827,-4.28554 -0.851072,-5.9466 0.523765,-0.56983 1.987794,-1.2333 2.72339,-1.23418 1.453796,-0.002 2.829382,0.82527 3.473822,2.08847 0.461773,0.90516 0.462225,2.54302 6.55e-4,3.4472 -0.383413,0.75155 -1.613788,1.88117 -2.212683,2.03149 l -0.39489,0.0991 v 13.75779 13.75779 l 0.910561,1.03529 c 0.500803,0.56941 2.011596,2.23324 3.357316,3.69741 3.552235,3.8649 6.485358,7.15443 6.485358,7.2734 0,0.1036 -1.196563,0.50518 -1.505254,0.50518 -0.09031,0 -0.903809,-0.76097 -1.807755,-1.69103 z"
       id="path34" /><path
       style="fill:#ffff00;stroke-width:0.655518"
       d="m 113.06032,171.84165 c 0,-1.50128 -0.0311,-1.64671 -0.43386,-2.02503 -1.75233,-1.64623 0.23364,-4.58513 2.40282,-3.55578 1.55328,0.73708 1.76915,2.8851 0.38133,3.79443 -0.41993,0.27515 -0.44246,0.36918 -0.44246,1.84687 v 1.55695 h -0.95392 -0.95391 z"
       id="path31" /><path
       style="fill:#000000;stroke-width:0.655518"
       d="m 81.841254,171.93075 c 0,-1.4866 -0.01377,-1.53853 -0.504795,-1.90155 -1.031583,-0.76268 -1.117082,-2.37944 -0.17562,-3.3209 0.909191,-0.9092 2.228127,-0.92047 3.121907,-0.0267 0.890607,0.8906 0.882885,2.17583 -0.01888,3.14116 -0.490866,0.52548 -0.514792,0.62277 -0.514792,2.09369 v 1.54262 h -0.953917 -0.95391 z"
       id="path30" /><path
       style="fill:#000000;stroke-width:0.655518"
       d="m 134.74767,173.90036 -0.57589,-0.59417 2.92917,-3.05575 c 1.61104,-1.68066 2.95669,-3.13368 2.99033,-3.22893 0.0336,-0.0953 -0.0784,-0.32739 -0.24896,-0.51587 -0.30187,-0.33356 -0.28274,-0.37038 0.71932,-1.38456 0.80522,-0.81496 1.11243,-1.02123 1.41049,-0.94708 0.22981,0.0572 0.43634,-0.002 0.52032,-0.14841 0.41959,-0.73283 4.84369,-5.32071 5.37296,-5.57186 l 0.61584,-0.29224 0.84753,0.83479 c 0.46614,0.45913 0.84754,0.91904 0.84754,1.02201 0,0.21118 -5.05948,5.25101 -5.71157,5.6894 -0.39579,0.26608 -0.40403,0.30295 -0.1342,0.6011 0.27195,0.3005 0.22719,0.37736 -0.82972,1.42489 -1.10997,1.10011 -1.11952,1.10514 -1.48007,0.77884 -0.36176,-0.32739 -0.37231,-0.31896 -3.43147,2.73904 -1.68773,1.68709 -3.11294,3.10693 -3.16716,3.1552 -0.0542,0.0482 -0.35772,-0.17962 -0.67446,-0.5064 z"
       id="path29" /><path
       style="fill:#ffff00;stroke-width:0.655518"
       d="m 57.989534,171.28467 -3.082064,-3.21504 -0.364888,0.34212 -0.364888,0.34212 -1.177632,-1.0892 c -1.022144,-0.94538 -1.142372,-1.11846 -0.910561,-1.31085 0.146895,-0.12192 0.267084,-0.27718 0.267084,-0.34503 0,-0.0679 -0.418948,-0.41191 -0.930987,-0.76458 -0.512045,-0.35265 -1.23322,-0.97049 -1.602618,-1.37297 -0.369391,-0.40249 -1.318254,-1.40521 -2.108573,-2.22827 l -1.436949,-1.49649 0.691185,-0.87441 c 0.829369,-1.04924 1.233424,-1.21594 1.904071,-0.78559 0.492865,0.31626 2.484966,2.397 4.417461,4.61402 0.748595,0.85881 1.077003,1.12349 1.233187,0.99387 0.155443,-0.12901 0.498437,0.11515 1.27147,0.90512 1.030475,1.05305 1.051373,1.09281 0.786615,1.49688 -0.301918,0.46078 -0.683397,0.005 4.251785,5.08001 l 1.626708,1.6728 -0.498895,0.62526 c -0.2744,0.3439 -0.586774,0.62527 -0.694175,0.62528 -0.107406,0 -1.582205,-1.44677 -3.277336,-3.21505 z"
       id="path28" /><path
       style="fill:#ffff00;stroke-width:0.655518"
       d="m 131.64957,190.33887 c 0.0464,-2.29211 0.11089,-2.8562 0.39172,-3.42221 0.18818,-0.3793 2.57453,-2.9748 5.41942,-5.89442 4.92377,-5.0531 5.09483,-5.25171 5.45476,-6.33328 0.36363,-1.09274 1.50867,-2.62594 1.94968,-2.61063 0.10709,0.004 0.65554,0.42109 1.21879,0.9275 l 1.02408,0.92073 -0.64001,0.96422 c -0.71005,1.06974 -0.88206,1.23689 -1.91779,1.86365 -0.77916,0.47149 -10.30185,10.05883 -10.68577,10.7583 -0.13845,0.25225 -0.27425,1.24399 -0.33011,2.41087 l -0.0949,1.98235 -0.92267,0.5887 -0.92267,0.58871 z"
       id="path27" /><path
       style="fill:#000000;stroke-width:0.655518"
       d="m 64.020369,192.49161 -0.910554,-0.69089 v -1.98741 -1.98739 l -4.573841,-4.71191 c -5.084444,-5.23792 -5.959934,-6.07058 -7.065702,-6.72003 -0.454871,-0.26716 -1.033595,-0.84593 -1.437618,-1.43775 l -0.676259,-0.99058 0.502822,-0.52955 c 0.276544,-0.29124 0.781811,-0.75215 1.122805,-1.02424 l 0.619989,-0.49472 0.793079,0.75995 c 0.598082,0.57311 0.885612,1.03803 1.169458,1.89098 0.366986,1.1028 0.505123,1.26252 5.534044,6.39866 2.93315,2.99568 5.303164,5.56092 5.495002,5.94764 0.264469,0.53312 0.34943,1.12958 0.39335,2.76128 0.03081,1.1447 0.03081,2.40203 0,2.79407 l -0.05605,0.71279 z"
       id="path26" /><path
       style="fill:#000000;stroke-width:0.655518"
       d="m 123.98796,190.93308 c 5.5e-4,-3.4736 0.0746,-6.37896 0.1716,-6.72794 0.25617,-0.92211 0.67711,-1.41499 5.12412,-5.99982 l 4.09472,-4.22162 0.68091,0.54719 c 0.37451,0.30096 0.68052,0.59268 0.68004,0.64825 -4.9e-4,0.0556 -1.91887,2.08302 -4.26307,4.50542 -2.3442,2.4224 -4.33402,4.5933 -4.42182,4.82423 -0.0878,0.23092 -0.15964,2.95002 -0.15964,6.04243 v 5.62256 l -0.86143,0.43652 c -0.47378,0.24008 -0.90304,0.43652 -0.95391,0.43652 -0.0509,0 -0.0921,-2.75118 -0.0915,-6.11374 z"
       id="path25" /><path
       style="fill:#000000;stroke-width:0.655518"
       d="m 71.738417,196.60182 -0.823836,-0.42884 v -5.62217 c 0,-3.09218 -0.0703,-5.80284 -0.15621,-6.02369 -0.08592,-0.22084 -2.076138,-2.37075 -4.422704,-4.77758 -2.346566,-2.40683 -4.266488,-4.44098 -4.266488,-4.52033 0,-0.0794 0.226816,-0.36158 0.504041,-0.62718 0.348992,-0.33435 0.609416,-0.44945 0.846609,-0.37417 0.451167,0.14319 8.594561,8.57594 9.001088,9.32091 0.285144,0.52252 0.319768,1.18501 0.367811,7.03744 0.02917,3.55334 -0.0098,6.45697 -0.08672,6.45254 -0.07687,-0.005 -0.510485,-0.20106 -0.963591,-0.43693 z"
       id="path24" /><path
       style="fill:#000000;stroke-width:0.655518"
       d="m 140.31998,133.62789 c 0.39521,-0.35765 0.41112,-1.2295 0.0302,-1.65049 -0.35766,-0.3952 -1.22951,-0.41113 -1.6505,-0.0301 -0.3952,0.35765 -0.41112,1.2295 -0.0302,1.65049 0.35766,0.3952 1.22951,0.41112 1.6505,0.0302 z"
       id="path23" /><path
       style="fill:#000000;stroke-width:0.655518"
       d="m 118.04557,195.84049 0.0974,-3.49809 -0.62925,-0.51869 c -0.98283,-0.81013 -1.18819,-2.16638 -0.5272,-3.48169 0.12892,-0.25653 0.38393,-0.57116 0.5667,-0.69918 0.30012,-0.21021 0.33801,-0.50938 0.39123,-3.08907 0.0534,-2.58752 0.0977,-2.93497 0.47036,-3.69199 0.28723,-0.58338 2.14125,-2.62541 6.14137,-6.76413 3.15146,-3.26066 6.02969,-6.3062 6.39606,-6.76788 l 0.66612,-0.83941 v -9.20705 -9.20705 l 2.47752,-2.52788 c 1.36265,-1.39034 2.88457,-2.97199 3.38207,-3.51478 l 0.90454,-0.98689 -0.005,-2.22174 -0.005,-2.22173 -0.7633,-0.463 c -1.18161,-0.71675 -1.72355,-1.67424 -1.79956,-3.17941 -0.0744,-1.4734 0.27805,-2.34309 1.28643,-3.17428 1.849,-1.52411 4.54593,-0.97175 5.65907,1.15904 1.04242,1.99544 0.27958,4.44725 -1.67865,5.39521 l -0.78519,0.3801 v 2.70702 2.70701 l -3.38207,3.40914 -3.38206,3.40914 v 6.37058 6.37057 l 0.65039,-0.52671 c 0.35772,-0.28969 3.2478,-3.08646 6.4224,-6.21503 l 5.77199,-5.68831 -0.005,-11.03552 c -0.005,-9.37889 0.0322,-11.06651 0.24369,-11.24202 0.38432,-0.31896 1.36137,-0.1558 1.56833,0.2619 0.11659,0.23532 0.16414,4.18817 0.13872,11.53371 l -0.0387,11.17568 -7.28914,7.2092 -7.28915,7.2092 v 1.16482 c 0,2.00298 0.62904,1.21676 -8.88999,11.11137 -2.26624,2.35564 -4.2937,4.61049 -4.50549,5.01077 -0.3336,0.63051 -0.39352,1.05556 -0.44822,3.18012 l -0.0631,2.45234 0.53986,0.3189 c 1.54767,0.91424 1.55403,3.51826 0.0105,4.31643 l -0.51869,0.26822 v 3.29518 3.29518 l -0.47695,0.18177 c -0.26233,0.1 -0.68448,0.22345 -0.93813,0.27439 l -0.46116,0.0926 z"
       id="path22" /><path
       style="fill:#000000;stroke-width:0.655518"
       d="m 58.123437,133.53377 c 0.405484,-0.46895 0.383491,-1.09982 -0.05356,-1.53689 -0.493081,-0.49308 -1.324102,-0.39203 -1.775996,0.21598 -0.308002,0.41441 -0.321231,0.52639 -0.119646,1.01306 0.372741,0.89987 1.309412,1.0478 1.94923,0.30785 z"
       id="path21" /><path
       style="fill:#000000;stroke-width:0.655518"
       d="m 77.678712,198.96608 -0.78048,-0.31606 -0.08672,-3.21441 -0.08672,-3.21441 -0.497971,-0.39133 c -1.341007,-1.05385 -1.264659,-3.3238 0.142811,-4.24601 0.439742,-0.28814 0.441879,-0.30163 0.441879,-2.79136 0,-2.1919 -0.04471,-2.58947 -0.36087,-3.2092 -0.210212,-0.41205 -2.907382,-3.31085 -6.460613,-6.94359 -3.354858,-3.42993 -6.275343,-6.48187 -6.48998,-6.78209 -0.326743,-0.45704 -0.390361,-0.77238 -0.390997,-1.93825 l -6.55e-4,-1.39241 -7.124739,-7.00914 c -3.918604,-3.85504 -7.238169,-7.18226 -7.376804,-7.39385 -0.211969,-0.32351 -0.262909,-2.15307 -0.320228,-11.5013 -0.06352,-10.36511 -0.04772,-11.14179 0.233673,-11.48935 0.173267,-0.21398 0.500311,-0.37276 0.767783,-0.37276 1.037377,0 0.987328,-0.57696 0.987328,11.3824 v 10.94969 l 6.288055,6.28628 c 3.45843,3.45745 6.346192,6.28629 6.41725,6.28629 0.07106,0 0.129202,-2.85397 0.129202,-6.34217 v -6.34215 l -2.928423,-3.06692 c -1.610635,-1.68681 -3.132566,-3.25614 -3.382069,-3.4874 -0.450964,-0.41799 -0.453638,-0.43604 -0.453638,-3.06206 v -2.6416 l -0.787789,-0.46167 c -1.890168,-1.10771 -2.591973,-3.38434 -1.632202,-5.29478 0.399007,-0.79424 0.941626,-1.28548 1.899673,-1.71982 1.50039,-0.68021 3.01214,-0.32459 4.194361,0.98668 1.707468,1.89384 1.163774,4.6678 -1.202536,6.13534 l -0.56368,0.34958 v 2.18283 2.18282 l 2.219199,2.26909 c 1.220562,1.248 2.742492,2.8364 3.382068,3.52978 l 1.162864,1.26069 v 9.16338 9.16338 l 0.390243,0.54065 c 0.21463,0.29736 3.090488,3.30114 6.390794,6.67507 7.32907,7.49254 6.953156,6.90652 6.930226,10.80386 l -0.01613,2.73638 0.62349,0.63851 c 1.114722,1.14158 1.103683,2.63989 -0.02779,3.77136 l -0.58916,0.58916 v 3.53816 c 0,1.94599 -0.05854,3.5338 -0.130081,3.52847 -0.07154,-0.005 -0.481295,-0.15192 -0.910555,-0.32576 z"
       id="path20" /><path
       style="fill:#000000;stroke-width:0.655518"
       d="m 119.05186,79.029283 c 0.52598,-0.52598 0.54266,-1.07512 0.0486,-1.60101 -0.75862,-0.80753 -2.10885,-0.28721 -2.10885,0.81265 0,1.1127 1.2555,1.59312 2.06025,0.78836 z"
       id="path19" /><path
       style="fill:#000000;stroke-width:0.655518"
       d="m 125.48572,98.437875 c 0.76879,-0.76879 0.24191,-1.81238 -0.915,-1.81238 -1.00908,0 -1.46915,1.20728 -0.72446,1.90107 0.51222,0.47721 1.10567,0.4451 1.63946,-0.0887 z"
       id="path18" /><path
       style="fill:#000000;stroke-width:0.655518"
       d="m 123.81355,119.83612 v -0.55055 l -0.4336,0.40734 c -0.23847,0.22405 -0.4336,0.47179 -0.4336,0.55055 0,0.0788 0.19513,0.14321 0.4336,0.14321 0.37145,0 0.4336,-0.0789 0.4336,-0.55055 z"
       id="path17" /><path
       style="fill:#000000;stroke-width:0.655518"
       d="m 125.64327,131.06439 c 0.83405,-1.27291 -0.82898,-2.63483 -1.90431,-1.55951 -0.34803,0.34804 -0.34911,1.10127 -0.003,1.59643 0.39559,0.56478 1.52671,0.54288 1.9066,-0.0369 z"
       id="path16" /><path
       style="fill:#000000;stroke-width:0.655518"
       d="m 121.21196,140.73981 v -4.10179 l -1.56271,0.11093 c -1.41354,0.10033 -1.59567,0.078 -1.90784,-0.23419 -0.41964,-0.41965 -0.43188,-0.66436 -0.0599,-1.19553 0.27253,-0.38908 0.34867,-0.40214 1.70322,-0.29224 0.77988,0.0633 1.54905,0.0648 1.70929,0.003 0.43929,-0.16857 0.38506,-1.06219 -0.0733,-1.20767 -0.34834,-0.11056 -0.36164,-0.20602 -0.29774,-2.13632 0.075,-2.26529 0.27694,-2.8713 1.31188,-3.93695 0.34188,-0.35202 0.88193,-0.74881 1.20012,-0.88176 l 0.57852,-0.24172 v -2.16567 -2.16566 h -1.68503 -1.68503 l -2.73766,2.73768 -2.73768,2.73767 v 5.54225 5.54224 l 2.98997,2.99363 c 1.64448,1.6465 3.04934,2.99364 3.12191,2.99364 0.0726,0 0.13193,-1.84581 0.13193,-4.1018 z"
       id="path15" /><path
       style="fill:#000000;stroke-width:0.655518"
       d="m 115.5518,153.84786 c 0.87895,-0.69139 0.43263,-2.06868 -0.67037,-2.06868 -0.19602,0 -0.52987,0.12149 -0.74188,0.26999 -0.65368,0.45786 -0.45599,1.76465 0.30828,2.03779 0.46206,0.16513 0.6387,0.12688 1.10397,-0.2391 z"
       id="path14" /><path
       style="fill:#000000;stroke-width:0.655518"
       d="m 125.06044,167.7684 1.52814,-1.52814 v -8.53217 -8.53217 l -1.64357,1.08483 -1.64356,1.08483 -0.005,4.16254 c -0.003,2.2894 -0.0558,6.32836 -0.11871,8.97548 -0.0945,3.9813 -0.0738,4.81294 0.11986,4.81294 0.12878,0 0.92181,-0.68766 1.76229,-1.52814 z"
       id="path13" /><path
       style="fill:#000000;stroke-width:0.655518"
       d="m 110.28529,198.58074 c 0,-2.92377 -0.0111,-3.01767 -0.37663,-3.18382 -1.43687,-0.65316 -1.5441,-3.41118 -0.16344,-4.20358 l 0.51498,-0.29556 0.0559,-3.38609 c 0.0785,-4.75421 -0.24706,-4.18529 5.96288,-10.42009 l 4.93298,-4.95274 v -9.91968 c 0,-6.15829 -0.0625,-9.91968 -0.16497,-9.91968 -0.20458,0 -2.13133,0.4978 -2.17143,0.56102 -0.0161,0.0253 -0.12752,0.39723 -0.24769,0.82648 -0.33349,1.19121 -0.91528,1.9484 -1.91522,2.49264 -0.80098,0.43594 -1.0451,0.4855 -2.09846,0.42598 -0.98161,-0.0555 -1.32349,-0.15964 -1.93663,-0.59013 -1.93871,-1.36115 -2.17048,-4.35087 -0.45795,-5.90706 1.50834,-1.37064 3.78352,-1.39929 5.25066,-0.0661 l 0.7065,0.642 1.47424,-0.36312 1.47423,-0.36312 -0.0469,-1.16784 -0.0469,-1.16784 -3.7981,-3.74402 c -2.08896,-2.05921 -3.92147,-4.00398 -4.07224,-4.3217 -0.23326,-0.49156 -0.27413,-1.46112 -0.27413,-6.50275 v -5.92507 l 1.27201,-1.33317 c 1.78687,-1.87278 4.47974,-4.44735 7.26987,-6.95047 l 2.38479,-2.13948 -0.006,-7.56861 -0.006,-7.5686 -0.89962,-0.52032 c -3.11688,-1.802715 -2.48822,-6.235565 0.99794,-7.036615 1.556,-0.35754 3.05328,0.31818 3.96204,1.78807 0.41273,0.66757 0.50541,1.01263 0.51151,1.90456 0.0111,1.62873 -0.68186,2.790505 -2.08876,3.501595 l -0.56368,0.2849 v 6.77921 6.77921 l 2.10905,-1.97072 c 1.15998,-1.0839 2.52582,-2.36386 3.03519,-2.84435 l 0.92613,-0.87363 v -8.55003 -8.550025 l -2.03791,-2.08441 c -1.12085,-1.14642 -2.31881,-2.3078 -2.66213,-2.58085 l -0.62422,-0.49646 -1.61124,1.51144 c -0.88619,0.83129 -1.68558,1.53982 -1.77641,1.57453 -0.0908,0.0347 -0.46333,-0.22807 -0.82776,-0.58392 l -0.66261,-0.64702 0.98196,-0.82771 c 0.54008,-0.45524 1.35316,-1.21026 1.80684,-1.67781 l 0.82488,-0.85009 -2.51793,-2.37073 -2.51794,-2.37073 -0.63917,0.37712 c -0.76823,0.45326 -2.13614,0.4886 -2.9344,0.0758 -0.77672,-0.40166 -1.58206,-1.395722 -1.80674,-2.230152 -0.59015,-2.19162 0.97635,-4.21454 3.24564,-4.19134 1.05616,0.0108 1.79382,0.39065 2.5318,1.30374 0.41118,0.50875 0.54124,0.87739 0.63743,1.80679 l 0.12086,1.16763 2.58958,2.474432 2.58958,2.47444 0.93585,-0.92635 0.93587,-0.92634 -0.28211,-0.70504 c -0.3736,-0.933722 -0.21405,-1.632892 0.51963,-2.277072 1.56517,-1.37423 3.86393,0.27239 3.19785,2.290652 -0.12442,0.37695 -0.8284,1.17313 -2.02682,2.29223 l -1.8362,1.71468 2.59278,2.61872 c 1.42603,1.4403 2.7206,2.8117 2.87683,3.04756 0.25411,0.38363 0.28405,1.39471 0.28405,9.592905 v 9.16407 l -0.85235,0.90123 c -0.46879,0.49567 -2.26597,2.22757 -3.99374,3.84864 l -3.14139,2.94742 0.048,1.30079 c 0.041,1.11154 0.0922,1.29869 0.35151,1.28634 0.16694,-0.008 1.21164,-0.0275 2.32156,-0.0433 l 2.01804,-0.0289 3.04659,-2.99182 c 1.67562,-1.6455 3.26502,-3.21471 3.53201,-3.48713 l 0.48542,-0.4953 v -4.83795 -4.83796 h 1.14936 1.14936 l -0.12753,5.0731 c -0.0701,2.7902 -0.18989,5.19016 -0.26612,5.33325 -0.0762,0.14309 -1.93447,2.03575 -4.12942,4.20591 l -3.99085,3.94574 h -1.20155 c -0.66095,0 -1.91614,0.0507 -2.78933,0.11269 l -1.58759,0.11269 v 2.11299 2.11299 l 0.6504,0.51704 c 0.35771,0.28438 0.74946,0.57614 0.87053,0.64837 0.14121,0.0842 0.63632,-0.25002 1.38092,-0.93231 1.89049,-1.73229 4.48085,-2.82224 8.50072,-3.57685 0.2428,-0.0456 0.48197,-0.29516 0.63591,-0.66356 0.6162,-1.4748 2.83274,-1.72448 3.75916,-0.42344 0.81311,1.14191 0.48274,2.66012 -0.71913,3.3047 -0.76471,0.41011 -1.39981,0.40071 -2.25059,-0.0333 l -0.68651,-0.35023 -1.75785,0.35823 c -3.00116,0.6116 -4.76724,1.50899 -6.55491,3.33072 l -0.94094,0.95885 0.0433,2.01544 0.0433,2.01543 h -2.70122 -2.70124 v 5.00216 c 0,2.75119 -0.0512,6.18529 -0.1138,7.63133 -0.072,1.66263 -0.0519,2.62916 0.0546,2.62916 0.0926,0 0.82674,-0.52735 1.6314,-1.1719 l 1.46301,-1.1719 0.0959,-2.42696 c 0.0917,-2.3208 0.12249,-2.48312 0.70443,-3.71074 l 0.60855,-1.28378 0.42293,0.9369 0.42292,0.9369 0.0467,12.82923 0.0467,12.82923 -2.67444,2.69358 -2.67445,2.69358 -0.0752,1.43111 c -0.0414,0.78712 -0.11739,1.4733 -0.16895,1.52486 -0.0516,0.0516 -0.42543,-0.039 -0.83084,-0.20119 l -0.7371,-0.29494 -4.30806,4.32739 c -3.26696,3.2816 -4.40388,4.5352 -4.70452,5.18733 -0.36084,0.78273 -0.39769,1.12179 -0.41043,3.7758 l -0.014,2.91585 0.4986,0.25783 c 1.47369,0.76208 1.56418,3.38285 0.14469,4.19067 l -0.52643,0.29959 -10e-4,2.90511 -0.001,2.90511 h -0.67957 c -0.37377,0 -0.80303,0.0474 -0.95392,0.10527 -0.24367,0.0935 -0.27434,-0.23149 -0.27434,-2.90734 z"
       id="path12" /><path
       style="fill:#000000;stroke-width:0.655518"
       d="m 79.507707,79.029283 c 0.234144,-0.23414 0.425713,-0.5889 0.425713,-0.78836 0,-0.51699 -0.760821,-1.21407 -1.325091,-1.21407 -1.134578,0 -1.684538,1.38825 -0.81951,2.06868 0.606217,0.47685 1.198622,0.45402 1.718888,-0.0663 z"
       id="path11" /><path
       style="fill:#000000;stroke-width:0.655518"
       d="m 72.93363,98.437875 c 0.741477,-0.74148 0.246246,-1.81238 -0.838126,-1.81238 -0.530268,0 -1.180923,0.53186 -1.180923,0.96531 0,0.33384 0.331633,0.98438 0.589645,1.15666 0.382692,0.25553 0.997424,0.12239 1.429404,-0.30959 z"
       id="path10" /><path
       style="fill:#000000;stroke-width:0.655518"
       d="m 73.51617,119.95308 c -0.483524,-0.51469 -0.693755,-0.54973 -0.693755,-0.11563 0,0.4268 0.148495,0.54922 0.666177,0.54922 h 0.434924 z"
       id="path9" /><path
       style="fill:#000000;stroke-width:0.655518"
       d="m 73.125933,131.0295 c 0.455756,-0.50132 0.491147,-0.88241 0.129865,-1.39823 -0.559406,-0.79865 -1.967467,-0.6098 -2.257088,0.30273 -0.154958,0.48822 0.198458,1.29473 0.665332,1.51835 0.501917,0.24041 0.986293,0.10029 1.461891,-0.42285 z"
       id="path8" /><path
       style="fill:#000000;stroke-width:0.655518"
       d="m 78.93439,141.93831 3.080301,-3.07675 v -5.40289 -5.4029 l -0.650392,-0.78618 c -0.357723,-0.4324 -1.648767,-1.72868 -2.868995,-2.88063 L 76.276709,122.2945 H 74.63628 72.995852 v 2.12493 2.12493 l 0.788261,0.41817 c 0.868215,0.46059 1.673211,1.37152 2.08683,2.36144 0.148429,0.35525 0.313764,1.44066 0.369575,2.42627 0.09579,1.69148 0.08181,1.79543 -0.271038,2.0158 -0.234413,0.14639 -0.372039,0.40938 -0.372039,0.71093 v 0.4786 h 1.722001 c 1.863206,0 2.267104,0.16736 2.267104,0.93943 0,0.80045 -0.521177,1.01554 -2.290952,0.94548 l -1.611435,-0.0638 -0.05113,4.11918 c -0.02812,2.26555 0.01009,4.11919 0.08496,4.11919 0.07484,0 1.522212,-1.38453 3.21638,-3.07674 z"
       id="path7" /><path
       style="fill:#000000;stroke-width:0.655518"
       d="m 82.771782,153.84786 c 0.559112,-0.4398 0.60918,-1.22273 0.110108,-1.72181 -0.723588,-0.72358 -1.910181,-0.24774 -1.905179,0.764 0.0033,0.61898 0.121257,0.83606 0.604381,1.11002 0.491108,0.27849 0.672641,0.25528 1.19069,-0.15221 z"
       id="path6" /><path
       style="fill:#000000;stroke-width:0.655518"
       d="m 73.689607,160.28216 v -9.01439 l -0.563674,-0.2869 c -0.310027,-0.1578 -1.055214,-0.62809 -1.655984,-1.0451 -0.600769,-0.417 -1.12759,-0.75818 -1.170716,-0.75818 -0.04313,0 -0.07841,3.79582 -0.07841,8.43516 v 8.43517 l 1.592903,1.62431 c 0.876094,0.89337 1.656574,1.62431 1.734391,1.62431 0.07782,0 0.141487,-4.05647 0.141487,-9.01438 z"
       id="path5" /><path
       style="fill:#000000;stroke-width:0.655518"
       d="m 85.526834,201.42925 -0.73711,-0.0664 v -2.73103 -2.73103 l -0.603772,-0.5852 c -1.205105,-1.16803 -1.233247,-2.67557 -0.07164,-3.83717 l 0.675414,-0.67542 v -2.91441 c 0,-3.88882 0.04385,-3.80272 -4.068705,-7.98792 -1.720965,-1.75136 -3.645935,-3.64327 -4.277717,-4.20423 l -1.148684,-1.01995 -0.802506,0.24152 -0.802505,0.24152 v -1.46968 -1.46969 l -2.682277,-2.63252 -2.682283,-2.63253 -0.04575,-12.83451 -0.04575,-12.8345 0.487666,-1.04063 0.487667,-1.04064 0.448407,1.12736 c 0.360837,0.90719 0.485057,1.63521 0.636076,3.72795 l 0.187668,2.60059 1.463019,1.17171 c 0.804655,0.64444 1.526598,1.17171 1.604309,1.17171 0.07772,0 0.141304,-3.4341 0.141304,-7.63133 v -7.63133 h -2.789971 -2.789952 l 0.0588,-2.03791 0.0588,-2.03791 -1.127885,-1.13379 c -1.718074,-1.72706 -4.082359,-2.80455 -7.166613,-3.26607 -1.054093,-0.15774 -1.242325,-0.14041 -1.73439,0.15962 -1.967879,1.19991 -4.274255,-1.11043 -3.073864,-3.07915 0.904681,-1.48373 3.140471,-1.42074 3.790405,0.10679 0.281558,0.66173 0.334399,0.69454 1.419794,0.88146 3.917614,0.67466 6.244409,1.73299 8.284212,3.768 l 0.739609,0.73788 0.864707,-0.62123 0.864708,-0.62123 v -2.12664 -2.12665 l -1.170717,-0.11056 c -0.643889,-0.0608 -1.893321,-0.11112 -2.776507,-0.1118 l -1.605791,-10e-4 -1.516116,-1.36712 c -0.833859,-0.75191 -2.745364,-2.61547 -4.247779,-4.14124 l -2.73167,-2.77413 v -5.13776 -5.13775 h 1.040636 1.040635 l -0.0013,4.81293 -0.0013,4.81295 3.556791,3.51214 3.556797,3.51214 1.777884,0.002 c 0.977837,0.001 2.070566,0.0503 2.428283,0.10941 l 0.650399,0.1075 v -1.38495 -1.38496 l -1.257436,-1.1031 c -3.500599,-3.07094 -6.272164,-5.66203 -6.647927,-6.21502 l -0.419722,-0.61767 v -8.75036 c 0,-8.459985 0.0118,-8.774695 0.354669,-9.483035 0.218772,-0.45192 1.348519,-1.70257 2.948469,-3.26401 1.426585,-1.39224 2.595243,-2.58961 2.597007,-2.66081 0.002,-0.0712 -0.857058,-0.94896 -1.908496,-1.95057 l -1.911715,-1.82111 6.56e-4,-0.9279 c 5.96e-4,-0.823582 0.06697,-0.994202 0.59036,-1.517592 0.503346,-0.50335 0.709061,-0.5897 1.404861,-0.5897 0.700218,0 0.900682,0.0855 1.421636,0.60647 0.558862,0.55887 0.600094,0.67119 0.525286,1.430882 -0.04464,0.45342 -0.134289,0.98064 -0.199192,1.17159 -0.08927,0.26266 0.08663,0.57565 0.722466,1.28557 l 0.840473,0.93838 2.634516,-2.49964 c 2.411987,-2.288512 2.63483,-2.550932 2.638252,-3.106692 0.01488,-2.41984 2.057994,-4.2094 4.159664,-3.64348 1.657872,0.44642 2.862164,2.39595 2.442587,3.95413 -0.399329,1.48299 -1.487313,2.507902 -2.884688,2.717452 -0.663621,0.0995 -0.955739,0.0447 -1.68442,-0.31589 l -0.881568,-0.43628 -1.312,1.19034 c -0.721601,0.65469 -1.840303,1.72652 -2.486008,2.38185 l -1.174001,1.1915 1.748393,1.71776 1.748385,1.71776 -0.661103,0.56613 c -0.36361,0.31138 -0.705548,0.56907 -0.759864,0.57265 -0.05434,0.004 -0.855052,-0.70329 -1.779411,-1.57084 l -1.680651,-1.57734 -1.169059,1.04407 c -1.425267,1.27288 -3.531526,3.42982 -3.919377,4.01369 -0.2544,0.38296 -0.284869,1.32961 -0.284869,8.850415 v 8.42158 l 1.083998,1.04739 c 0.962085,0.9296 3.709678,3.40878 4.769579,4.30365 l 0.390236,0.32948 v -6.79531 -6.79531 l -0.399964,-0.15208 c -1.169229,-0.44454 -2.370827,-2.207955 -2.372354,-3.481555 -0.0026,-2.09987 1.803318,-3.98911 3.813,-3.98911 1.510026,0 3.255796,1.33994 3.649186,2.80088 0.454523,1.68797 -0.315265,3.497195 -1.870771,4.396855 l -0.899621,0.52032 -0.0059,7.64404 -0.0059,7.64403 1.517591,1.28684 c 1.944713,1.649 3.107347,2.71196 6.677412,6.10497 l 2.905107,2.76103 v 5.95633 c 0,3.80714 -0.0669,6.13252 -0.185407,6.44459 -0.101979,0.26854 -2.014146,2.32761 -4.24926,4.57572 l -4.063854,4.08747 v 0.9032 c 0,1.03653 0.02025,1.05132 1.929355,1.40598 l 1.148887,0.21343 0.806386,-0.61553 c 1.271431,-0.97051 2.647312,-1.22306 3.873013,-0.71093 1.621464,0.67749 2.464527,1.86649 2.471462,3.48559 0.0046,1.05665 -0.322371,1.91263 -1.044536,2.73514 -1.127026,1.2836 -3.440731,1.53225 -4.892848,0.52582 -0.766937,-0.53154 -1.69013,-2.04518 -1.69013,-2.77106 0,-0.31461 -0.172808,-0.42814 -1.00866,-0.66266 -0.554758,-0.15566 -1.140117,-0.28301 -1.300791,-0.28301 -0.27046,0 -0.292138,0.72995 -0.292138,9.83611 v 9.83611 l 4.933019,4.9521 c 4.454529,4.47176 4.988659,5.06962 5.506696,6.16366 l 0.573677,1.21155 0.05618,3.29535 0.05618,3.29535 0.655689,0.63257 c 0.373698,0.36053 0.704007,0.87413 0.768019,1.19421 0.168901,0.84449 -0.190769,1.90594 -0.859529,2.53667 l -0.589822,0.55627 v 2.8734 c 0,2.19925 -0.05087,2.86628 -0.2168,2.84309 -0.119239,-0.0166 -0.548499,-0.0602 -0.953917,-0.0967 z"
       id="path4" /><path
       style="fill:#000000;stroke-width:0.655518"
       d="m 97.566415,203.52188 c -0.06358,-0.0636 -0.115627,-3.99573 -0.115627,-8.73809 v -8.62246 l -0.823837,-0.20716 c -2.477748,-0.62303 -4.826523,-3.0501 -5.413251,-5.59369 -0.09826,-0.42595 -0.173503,-3.8393 -0.175929,-7.98036 l -0.0039,-7.23606 -2.27948,-0.0484 c -1.949492,-0.0414 -2.307156,-0.0923 -2.470623,-0.35192 -0.139029,-0.22076 -0.139133,-0.38595 -3.99e-4,-0.60589 0.163827,-0.25973 0.432832,-0.29605 1.906942,-0.25743 0.943914,0.0247 1.950351,0.0633 2.236524,0.0856 0.447883,0.0349 0.52781,-0.0242 0.57411,-0.42503 l 0.05382,-0.46566 -2.048345,0.0409 c -2.456857,0.049 -2.873616,-0.0547 -2.796966,-0.69646 0.04956,-0.94366 3.068417,-0.74593 3.891564,-0.6726 l 0.932888,0.11656 v -0.61952 -0.61952 h -2.313947 c -2.311247,0 -2.31379,-4.5e-4 -2.514975,-0.442 -0.301021,-0.66067 -0.0039,-1.0822 2.561877,-3.63132 l 2.266691,-2.25221 v -8.17661 -8.17661 l -0.757156,-0.62044 c -1.046175,-0.85726 -1.324325,-1.52501 -1.323151,-3.17651 0.0013,-1.72605 0.209149,-2.46617 0.870948,-3.10021 0.457571,-0.43838 0.686393,-0.51411 1.731958,-0.57319 l 1.204732,-0.0681 0.04687,-3.49277 0.04687,-3.49277 1.665862,-0.0494 1.665856,-0.0494 0.105807,-4.9804 c 0.09989,-4.70178 0.546485,-7.55398 0.832615,-9.64659 0.222844,-1.62977 -0.66523,-7.07101 0.231532,-10.936615 0.393901,-1.69793 1.165689,-3.63795 1.33027,-3.34386 0.07805,0.13947 0.347018,1.02542 0.597715,1.96879 1.25561,4.724835 -0.01806,10.419155 0.355295,11.972265 0.764595,3.18071 0.956425,4.99206 1.057605,9.98582 l 0.10089,4.98021 1.57835,0.0496 1.57834,0.0496 0.0469,3.51214 0.0469,3.51214 1.08041,2.7e-4 c 1.32785,3.4e-4 2.14455,0.38283 2.59172,1.21381 0.27579,0.51251 0.3186,0.91262 0.27487,2.56954 l -0.0518,1.9625 -0.91056,0.86818 -0.91056,0.86819 v 8.21348 8.21347 l 0.39024,0.32374 c 1.14413,0.94916 4.6395,4.74292 4.6395,5.03555 0,0.54766 -0.58973,0.94675 -1.33222,0.90154 -0.36428,-0.0222 -1.34525,-0.0294 -2.17992,-0.0161 l -1.5176,0.0243 v 0.52032 c 0,1.4746 4.51132,-0.35398 5.02974,1.25924 -0.58681,1.79607 -4.135,0.31503 -5.00105,0.89284 -0.11921,0.60861 0.0347,0.62299 0.65774,0.59943 0.0943,-0.004 3.49735,-0.12557 3.67809,-0.0188 0.55772,0.32946 0.67264,1.00456 0.18826,1.10604 -0.16693,0.0349 -1.25938,0.0636 -2.42767,0.0636 h -2.12414 l -0.003,7.19773 c -0.002,5.54097 -0.0573,7.40332 -0.24036,8.09091 -0.72319,2.71608 -2.94473,4.96826 -5.54703,5.62353 l -0.80173,0.20188 v 8.73809 8.73809 h -0.925009 c -0.508761,0 -0.977044,-0.0521 -1.040636,-0.11562 z"
       id="path3"
       sodipodi:nodetypes="cscssccssssssccsscccssccccscsscccccssssssscccccssscccccsssccsscsscscccscccscc" /><text
       xml:space="preserve"
       style="font-style:normal;font-variant:normal;font-weight:normal;font-stretch:normal;font-size:22.6604px;font-family:Ringbearer;-inkscape-font-specification:'Ringbearer, Normal';font-variant-ligatures:normal;font-variant-caps:normal;font-variant-numeric:normal;font-variant-east-asian:normal;text-align:center;letter-spacing:0px;word-spacing:0px;text-orientation:upright;text-anchor:middle;fill:#ffff00;stroke-width:1.63454"
       x="97.23912"
       y="248.563"
       id="text1"><tspan
         sodipodi:role="line"
         id="tspan1"
         style="font-style:normal;font-variant:normal;font-weight:normal;font-stretch:normal;font-size:22.6604px;font-family:Ringbearer;-inkscape-font-specification:'Ringbearer, Normal';font-variant-ligatures:normal;font-variant-caps:normal;font-variant-numeric:normal;font-variant-east-asian:normal;fill:#ffff00;stroke-width:1.63454"
         x="97.23912"
         y="248.563">Fellowship</tspan></text><text
       xml:space="preserve"
       style="font-style:normal;font-variant:normal;font-weight:normal;font-stretch:normal;font-size:22.2816px;font-family:Ringbearer;-inkscape-font-specification:'Ringbearer, Normal';font-variant-ligatures:normal;font-variant-caps:normal;font-variant-numeric:normal;font-variant-east-asian:normal;text-align:center;letter-spacing:-0.529167px;word-spacing:0px;text-orientation:upright;text-anchor:middle;fill:#ffff00;stroke-width:1.60721"
       x="69.57473"
       y="272.39041"
       id="text2"><tspan
         sodipodi:role="line"
         id="tspan2"
         style="letter-spacing:-0.529167px;fill:#ffff00;stroke-width:1.60721"
         x="69.31015"
         y="272.39041">of the</tspan></text><text
       xml:space="preserve"
       style="font-style:normal;font-variant:normal;font-weight:normal;font-stretch:normal;font-size:22.2816px;font-family:Ringbearer;-inkscape-font-specification:'Ringbearer, Normal';font-variant-ligatures:normal;font-variant-caps:normal;font-variant-numeric:normal;font-variant-east-asian:normal;text-align:center;letter-spacing:0px;word-spacing:0px;text-orientation:upright;text-anchor:middle;fill:#ffff00;stroke-width:1.60721"
       x="130.29179"
       y="269.45026"
       id="text3"><tspan
         sodipodi:role="line"
         id="tspan3"
         style="stroke-width:1.60721"
         x="130.29179"
         y="269.45026">FlUX</tspan></text><text
       xml:space="preserve"
       style="font-style:normal;font-variant:normal;font-weight:normal;font-stretch:normal;font-size:3.49516px;font-family:Ringbearer;-inkscape-font-specification:'Ringbearer, Normal';font-variant-ligatures:normal;font-variant-caps:normal;font-variant-numeric:normal;font-variant-east-asian:normal;text-align:center;letter-spacing:0px;word-spacing:0px;text-orientation:upright;text-anchor:middle;fill:#ffff00;stroke-width:0.252112"
       x="98.648857"
       y="144.03392"
       id="text4"><tspan
         sodipodi:role="line"
         id="tspan20"
         x="98.648857"
         y="144.03392">One</tspan><tspan
         sodipodi:role="line"
         id="tspan21"
         x="98.648857"
         y="148.40288">Lead</tspan><tspan
         sodipodi:role="line"
         id="tspan22"
         x="98.648857"
         y="152.77182">Ring</tspan><tspan
         sodipodi:role="line"
         id="tspan23"
         x="98.648857"
         y="157.14078">To</tspan><tspan
         sodipodi:role="line"
         id="tspan24"
         x="98.648857"
         y="161.50972">Rule</tspan><tspan
         sodipodi:role="line"
         id="tspan25"
         x="98.648857"
         y="165.87868">them</tspan><tspan
         sodipodi:role="line"
         id="tspan26"
         x="98.648857"
         y="170.24762">All</tspan></text></g></svg>
